{"title":"Pirates of the Caribbean Dead Mans Chest(2006)MPEG-4[DaScubaDude","uid":13835888,"size":1504896259,"categoryP":"video","categoryS":"movies","magnet":"?xt=urn:btih:ed0da468e1031532613ce9e4f55bf8f2db155af7&amp;dn=Pirates+of+the+Caribbean+Dead+Mans+Chest%282006%29MPEG-4%5BDaScubaDude&amp;tr=udp%3A%2F%2Ftracker.leechers-paradise.org%3A6969&amp;tr=udp%3A%2F%2Fzer0day.ch%3A1337&amp;tr=udp%3A%2F%2Fopen.demonii.com%3A1337&amp;tr=udp%3A%2F%2Ftracker.coppersurfer.tk%3A6969&amp;tr=udp%3A%2F%2Fexodus.desync.com%3A6969","seeders":1,"leechers":0,"uploader":"dascuba","files":1,"time":1457755660,"description":"Pirates of the Caribbean: Dead Man's Chest (2006)\r\nPG-13 | 2h 31min | Action, Adventure, Fantasy | 7 July 2006 (USA)\r\nJack Sparrow races to recover the heart of Davy Jones to avoid enslaving his soul to Jones' service, as other friends and foes seek the heart for their own agenda as well.\r\nDirector: Gore Verbinski\r\nWriters: Ted Elliott, Terry Rossio | 4 more credits »\r\nStars: Johnny Depp, Orlando Bloom, Keira Knightley |\r\n\r\nGeneral\r\nComplete name                            : Dead Mans ChestPIRATES_OF_THE_CARIBBEAN_2_Title1.mp4\r\nFormat                                   : MPEG-4\r\nFormat profile                           : Base Media\r\nCodec ID                                 : isom\r\nFile size                                : 1.40 GiB\r\nDuration                                 : 2h 30mn\r\nOverall bit rate                         : 1 333 Kbps\r\nMovie name                               : PIRATES_OF_THE_CARIBBEAN_2\r\nGenre                                    : Fantasy\r\nWriting application                      : Lavf54.6.100\r\n\r\nVideo\r\nID                                       : 1\r\nFormat                                   : AVC\r\nFormat/Info                              : Advanced Video Codec\r\nFormat profile                           :   \r\nFormat settings, CABAC                   : No\r\nFormat settings, ReFrames                : 6 frames\r\nCodec ID                                 : avc1\r\nCodec ID/Info                            : Advanced Video Coding\r\nDuration                                 : 2h 30mn\r\nBit rate                                 : 1 198 Kbps\r\nWidth                                    : 720 pixels\r\nHeight                                   : 404 pixels\r\nDisplay aspect ratio                     : 16:9\r\nFrame rate mode                          : Constant\r\nFrame rate                               : 29.970 fps\r\nColor space                              : YUV\r\nChroma subsampling                       : 4:2:0\r\nBit depth                                : 8 bits\r\nScan type                                : Progressive\r\nBits/(Pixel*Frame)                       : 0.137\r\nStream size                              : 1.26 GiB (90%)\r\n\r\nAudio\r\nID                                       : 2\r\nFormat                                   : AAC\r\nFormat/Info                              : Advanced Audio Codec\r\nFormat profile                           : LC\r\nCodec ID                                 : 40\r\nDuration                                 : 2h 30mn\r\nBit rate mode                            : Constant\r\nBit rate                                 : 128 Kbps\r\nChannel(s)                               : 2 channels\r\nChannel positions                        : Front: L R\r\nSampling rate                            : 44.1 KHz\r\nCompression mode                         : Lossy\r\nStream size                              : 138 MiB (10%)","torrent":{"xt":"urn:btih:ed0da468e1031532613ce9e4f55bf8f2db155af7","amp;dn":"Pirates+of+the+Caribbean+Dead+Mans+Chest%282006%29MPEG-4%5BDaScubaDude","amp;tr":["udp%3A%2F%2Ftracker.leechers-paradise.org%3A6969","udp%3A%2F%2Fzer0day.ch%3A1337","udp%3A%2F%2Fopen.demonii.com%3A1337","udp%3A%2F%2Ftracker.coppersurfer.tk%3A6969","udp%3A%2F%2Fexodus.desync.com%3A6969"],"infoHash":"ed0da468e1031532613ce9e4f55bf8f2db155af7","infoHashBuffer":{"type":"Buffer","data":[237,13,164,104,225,3,21,50,97,60,233,228,245,91,248,242,219,21,90,247]},"announce":[],"urlList":[]}}